<?xml version="1.0" encoding="UTF-8"?>
<svg xmlns="http://www.w3.org/2000/svg" width="100" height="101" viewBox="0 0 100 101" fill="none">
  <g clip-path="url(#clip0_2057_2903)">
    <path d="M81.8192 50.6049H85.2938L79.8269 60.014C79.6589 60.0471 79.7209 59.9707 79.6801 59.9045C77.9857 57.1387 76.5415 54.2066 74.8343 51.4468C74.7614 51.3738 74.6706 51.3772 74.5781 51.3645C73.2128 51.1803 71.3487 51.5758 70.0021 51.3645C69.1154 51.2245 69.1086 49.7979 70.165 49.6723C70.9796 49.5755 73.7856 49.5602 74.5688 49.6799C75.1619 49.7707 75.161 50.1849 75.4215 50.6066H77.5402C77.6616 50.532 77.6573 50.4378 77.6717 50.3147C77.8635 48.6802 77.3213 45.6497 76.948 43.9948C74.444 32.891 65.4312 24.0531 54.2929 21.7304C33.6616 17.426 15.2999 35.6381 19.3838 56.3011C21.6417 67.7248 30.8751 77.1041 42.3256 79.3386C42.1356 79.7341 41.7639 80.0023 41.5467 80.3808C40.9765 81.3762 41.0681 82.3522 41.3923 83.4062C36.1536 82.2673 31.1754 79.931 27.0305 76.5389C12.4116 64.5746 10.4711 42.7659 22.9594 28.4814C37.1761 12.2204 62.9061 13.4009 75.4953 30.9501C79.5995 36.6709 81.8073 43.528 81.8184 50.6049H81.8192Z" fill="#006231"></path>
    <path d="M49.0216 80.0158H56.7761C56.8941 80.0158 57.5338 80.3825 57.6594 80.4885C58.8295 81.4781 58.3306 83.6786 56.771 83.9943L43.979 83.9994C42.495 83.794 41.8739 81.9516 42.7139 80.7839L53.2964 67.7197C55.7163 63.5766 50.0178 59.851 47.1134 63.5698C46.4371 64.4354 46.5313 65.0023 46.3862 65.9783C46.0349 68.3452 42.2421 68.3163 42.3236 65.3061C42.4279 61.4745 45.8949 58.1817 49.6538 57.9738C55.4584 57.6521 59.5193 63.4289 57.3429 68.8C54.9747 72.6758 51.8336 76.0789 49.1039 79.7154L49.0225 80.015L49.0216 80.0158Z" fill="#006231"></path>
    <path d="M48.3427 23.3976C48.4089 25.0839 48.6422 26.76 48.7661 28.4412C49.0835 32.76 49.1759 37.0898 49.3635 41.4052C49.5306 43.139 49.1293 45.3302 49.3558 47.0072C49.4212 47.4909 50.0363 47.5002 50.3554 47.7939L50.548 47.7752C53.8003 45.8377 57.0925 43.935 60.517 42.3107C61.2994 41.9399 62.1029 41.5503 62.92 41.2822C59.4233 44.3959 55.5686 47.1073 51.6663 49.6898C51.8343 51.4032 51.2599 53.0708 49.5612 53.7302C45.238 55.4071 42.7791 49.0236 47.0335 47.3033C47.2897 45.2751 47.1081 43.1993 47.154 41.1515C47.1582 40.9512 47.2405 40.7653 47.2456 40.565C47.3814 34.947 47.5163 29.1074 48.1739 23.5232C48.1891 23.3968 48.2417 23.2653 48.3436 23.3985L48.3427 23.3976Z" fill="#006231"></path>
    <path d="M58.9114 68.7618C59.2788 68.6786 59.7141 68.7202 59.9542 69.0393C60.2495 69.8421 62.285 72.6028 62.2239 73.2579C62.1527 74.0251 61.2431 74.3527 60.678 73.8248C60.0806 72.5935 59.0896 71.3493 58.5279 70.1273C58.3089 69.6503 58.2886 68.9044 58.9114 68.7626V68.7618Z" fill="#006231"></path>
    <path d="M66.9635 60.7102C67.2011 60.6559 67.4981 60.6686 67.728 60.7569L71.4742 62.943C72.1818 63.5854 71.5997 64.7243 70.6299 64.4663L66.6547 62.1699C66.2448 61.7736 66.3865 60.8426 66.9635 60.711V60.7102Z" fill="#006231"></path>
    <path d="M70.6083 36.6392C71.5289 36.4482 71.9786 37.0474 71.6842 37.8841C70.526 38.8737 69.0267 39.4652 67.7505 40.3062C66.79 40.8103 65.9067 39.595 66.7306 38.8635L70.6083 36.6392Z" fill="#006231"></path>
    <path d="M29.8375 60.8907C30.0624 61.1156 30.1048 61.6095 30.0191 61.9032C29.8766 62.3886 26.4732 64.0265 25.8869 64.4661C24.8687 64.7487 24.2238 63.5148 25.1775 62.8248C26.2348 62.0602 27.7477 61.4899 28.8473 60.732C29.1791 60.6497 29.5804 60.6353 29.8375 60.8916V60.8907Z" fill="#006231"></path>
    <path d="M34.8428 27.0607C35.1491 26.9911 35.5802 27.0047 35.7999 27.2542C36.3947 28.4431 37.4511 29.7467 37.9653 30.9373C38.4294 32.0117 37.5597 32.801 36.612 32.1212C36.0333 30.8932 34.9455 29.5888 34.4296 28.371C34.2277 27.894 34.2404 27.1981 34.8437 27.0607H34.8428Z" fill="#006231"></path>
    <path d="M25.2664 36.6375C25.5201 36.5798 25.7839 36.6027 26.0309 36.6842C26.3652 36.7945 29.5106 38.6293 29.777 38.8703C30.4634 39.4916 29.8593 40.6737 28.9319 40.3937L24.9567 38.0964C24.5409 37.6856 24.6724 36.7725 25.2655 36.6375H25.2664Z" fill="#006231"></path>
    <path d="M37.8891 68.9425C38.1521 69.2056 38.1156 69.6104 38.0681 69.9516C37.2951 71.0438 36.7427 72.5544 35.9545 73.6016C35.2069 74.5946 34.0538 73.8868 34.3313 72.9108L36.5255 69.0868C36.7885 68.6616 37.5471 68.6005 37.8891 68.9417V68.9425Z" fill="#006231"></path>
    <path d="M61.0314 27.0597C61.8689 26.8679 62.4221 27.4399 62.1319 28.2436C61.9571 28.7299 60.2856 31.6161 59.9521 31.998C59.2105 32.8467 58.1346 32.1482 58.4486 31.1723C58.5987 30.7055 60.2686 27.7819 60.5953 27.3856C60.7132 27.243 60.8413 27.103 61.0314 27.0597Z" fill="#006231"></path>
    <path d="M26.8767 49.8684C27.334 50.2928 27.1855 51.2585 26.516 51.3629C25.1525 51.5759 23.2841 51.2186 21.8645 51.3629C20.9787 51.1898 21.0076 49.8124 21.8645 49.6775C23.2875 49.787 24.9624 49.5145 26.3531 49.6707C26.5067 49.6877 26.7663 49.7666 26.8758 49.8684H26.8767Z" fill="#006231"></path>
  </g>
  <defs>
    <clipPath id="clip0_2057_2903">
      <rect width="70.5887" height="66.9994" fill="white" transform="translate(14.7051 17)"></rect>
    </clipPath>
  </defs>
</svg>
