<?xml version="1.0" encoding="UTF-8"?>
<svg xmlns="http://www.w3.org/2000/svg" width="100" height="101" viewBox="0 0 100 101" fill="none">
  <g clip-path="url(#clip0_2057_2921)">
    <path d="M27.8789 43.3991C30.3086 43.146 34.0464 41.8332 34.9343 45.0298L34.9639 71.4114C34.44 75.6735 26.0677 72.8154 23.6617 71.488C13.1082 65.6748 12.8537 52.3588 22.5104 45.536C22.5933 38.9781 21.9185 33.5652 25.0704 27.5577C34.7034 9.20566 63.9637 8.74943 74.384 26.5953C78.0389 32.8529 77.8051 38.7809 77.7371 45.8333C85.8283 51.8614 87.0328 62.5371 79.2937 69.4806C78.9534 69.7837 77.5092 70.6285 77.453 70.7256C77.2103 71.1436 77.4737 72.4387 77.3553 73.1275C75.8341 81.9547 68.178 83.0026 60.4863 82.4404C59.1634 84.489 57.6127 86.7142 55.0054 87.2499C53.3303 87.5943 49.264 87.5266 47.4617 87.3912C38.2814 86.7024 38.1187 73.3482 47.4765 72.4299C52.1347 71.9707 58.0388 72.0796 60.0572 77.0569L60.4301 77.1393C64.674 76.9715 69.9773 78.2637 71.7856 73.307C69.415 73.4041 65.9347 74.6757 65.0232 71.6764C65.5707 63.2788 64.236 53.857 64.9906 45.5831C65.3399 41.7685 69.421 43.0753 72.0786 43.3991V35.3372C72.0786 33.9361 70.2052 29.9301 69.3706 28.6497C60.6787 15.3132 37.6718 15.7017 29.9979 29.8242C29.3912 30.9427 27.8759 34.513 27.8759 35.6315V43.4021L27.8789 43.3991ZM29.6457 68.0265V48.3823C23.2089 49.8069 18.962 56.0175 21.9274 62.3664C23.3213 65.351 26.4199 67.4761 29.6457 68.0265ZM70.3177 68.0265C76.3195 66.9816 80.6018 61.0507 78.4177 55.1286C77.0801 51.5052 74.0318 49.2212 70.3177 48.3823V68.0265ZM48.1365 77.7721C45.0261 78.2843 45.1888 81.7722 48.0595 82.1048C49.264 82.2461 53.576 82.2785 54.3987 81.6574C55.3191 80.9657 55.399 78.9701 54.526 78.3108C53.4665 77.5131 49.4889 77.5484 48.1365 77.7721Z" fill="#006231"></path>
  </g>
  <defs>
    <clipPath id="clip0_2057_2921">
      <rect width="69" height="74" fill="white" transform="translate(15.5 13.5)"></rect>
    </clipPath>
  </defs>
</svg>
